<svg version="1.1" xmlns="http://www.w3.org/2000/svg" viewBox="0 0 524.0000610351562 92" width="1572.0001831054688" height="276">
  <!-- svg-source:excalidraw -->
  
  <defs>
    <style>
      @font-face {
        font-family: "Virgil";
        src: url("https://excalidraw.com/Virgil.woff2");
      }
      @font-face {
        font-family: "Cascadia";
        src: url("https://excalidraw.com/Cascadia.woff2");
      }
    </style>
  </defs>
  <rect x="0" y="0" width="524.0000610351562" height="92" fill="#ffffff"></rect><g stroke-linecap="round" transform="translate(10 10) rotate(0 252.00003051757812 36)"><path d="M0 0 C0 0, 0 0, 0 0 M0 0 C0 0, 0 0, 0 0 M-0.78 6.38 C1.68 5.28, 3.12 2.33, 5.66 0.64 M0.1 6.66 C1.17 5.01, 2.37 3.04, 5.05 0.58 M-0.2 12.1 C4 8.05, 4.99 5.74, 10.86 -0.42 M0.51 12.73 C1.87 9.75, 5.12 6.78, 10.43 0.09 M1.23 18.52 C4.57 15.22, 8.6 7.74, 13.78 0.83 M-0.28 18.36 C4.54 13.63, 8.86 7.94, 14.73 -0.05 M1.95 25.89 C5.99 17.74, 8.11 14.84, 20.42 0.02 M-0.39 24.68 C8.37 14.75, 15.21 6.8, 20.87 0.21 M1.52 29.02 C9 20.38, 17.27 10.32, 28.15 -1.08 M0.74 31.26 C5.73 24.46, 11.54 16.58, 26.56 0.65 M0.35 36.41 C8.06 23.5, 18.75 15.18, 31.19 0.84 M-0.7 36.16 C8.59 26.22, 19 15.94, 32.19 0.64 M1.14 40.98 C13.23 28.36, 22.42 15, 34.97 1.06 M-0.57 42.05 C14.68 25.22, 29.72 10.07, 37.71 0.99 M-1.56 50.89 C12.97 33.15, 25.65 19.38, 40.81 1.28 M-0.46 48.3 C14.83 31.33, 31.08 13.1, 42.2 -0.4 M-1.31 52.72 C16.19 37.23, 28.4 20.38, 48.21 0.21 M1.14 55.39 C16.67 35.73, 35.76 14.17, 46.84 -0.69 M-1.47 62.05 C13.17 44.86, 24.73 31.75, 51.61 -0.05 M-0.15 60.73 C18.88 39.72, 36.32 18.94, 52.4 -0.39 M0.85 66.62 C18.62 47.22, 36.63 28.09, 58.6 0.6 M0.22 67.09 C17.77 45.83, 37.11 23.59, 58.25 0.36 M1 72.38 C19.79 50.45, 36.62 32.02, 62.69 -1.32 M0.69 71.91 C17.56 52.58, 33.79 33.73, 63.88 -0.4 M6.93 71.21 C21.36 54.03, 35.72 36.87, 69.59 1.7 M6.48 72.26 C24.99 49.14, 44.62 27.21, 67.87 -0.75 M11.49 73.76 C28.14 53.63, 41.72 38.58, 73.89 -1.42 M10.65 72.9 C33.38 47.61, 55.19 23.06, 75.4 -1.13 M15.79 72.86 C31.43 55.78, 45.97 40.32, 81.4 -1.77 M16.2 72.96 C41.31 43.74, 65.13 15.42, 79.25 -0.56 M21.37 71.25 C40.2 50.53, 58.13 31.18, 85.8 -0.01 M22.96 72.98 C39.23 51.47, 57.44 31.04, 85.3 -0.92 M28.44 72.19 C47.81 44.53, 73.9 19.97, 90.99 0.17 M26.64 72.65 C42.27 54.34, 57.52 37.14, 89.55 0.81 M32.62 73.82 C56.3 43.26, 80.86 15.63, 95.76 -1.48 M32.29 72.53 C45.82 56.27, 59.44 41.39, 95.58 0.29 M39.22 71.8 C54.98 52.87, 70.61 35.23, 100.08 0.74 M37.3 71.87 C53.46 53.26, 67.39 36.49, 101.58 -0.42 M43.29 74.45 C60.73 50.95, 78.09 31.75, 105.85 1 M42.27 73.03 C59.62 52.62, 78.43 31.45, 105.84 -1.1 M47.21 73.55 C71.42 47.4, 93.19 20.2, 111.13 0.42 M49.28 71.53 C70.66 46.51, 93.64 21.52, 111.76 0.36 M54.16 71.09 C70.56 55.54, 85.49 34.26, 118.26 2.3 M54.15 72.07 C71.42 51.08, 90.36 29.56, 116.67 0.48 M60.26 70.52 C71.29 55.85, 85.7 42.87, 123.37 -1.09 M59.31 72.94 C83.85 43.49, 107.17 15.46, 122.14 0.14 M64.78 71.23 C87.86 45.88, 109.89 20.73, 125.9 2.24 M64.81 71.89 C80.56 51.88, 99.82 31.33, 126.24 0.67 M70.95 71.07 C92.43 46.73, 112.46 22.19, 132.74 -0.79 M69.77 71.77 C82.16 56.79, 96.38 42, 132.4 0.27 M76.13 72.84 C97.26 46.38, 120.94 18.32, 136.44 2.19 M75.43 72.35 C93.99 48.82, 114.61 25.99, 138.39 -0.21 M80.62 70.79 C94.71 54.93, 110.5 38.74, 143.98 -0.48 M80.63 72.05 C99.35 49.18, 120.45 26.82, 143.83 0.48 M85.91 73.14 C103.73 48.93, 123.08 25.73, 146.99 1.99 M84.81 73.69 C105.06 49.35, 126.92 24.05, 147.21 -0.26 M91.38 72.54 C112.19 46.6, 139.65 18.57, 154.53 1.32 M91.51 72.21 C104.96 57.08, 117.73 41.01, 153.36 -1.12 M96.59 72.61 C112.39 53.15, 131.14 29.58, 159.36 0.73 M95.37 72.5 C111.38 56.36, 125.52 38.69, 158.45 0.84 M102.04 70.41 C123.01 44.06, 147.1 20.59, 162.63 1.35 M101.64 73.05 C119.21 51.11, 137.99 29.15, 163.53 -0.05 M107.39 70.96 C121.88 58.08, 134.49 41.13, 168.17 0.77 M107.17 71.78 C121.97 55.69, 137.58 36.86, 169.47 -0.27 M112.22 73.74 C134.34 45.6, 160.43 18.95, 175.23 -0.44 M111.89 71.73 C134.23 48.06, 155.49 22.74, 174.52 0.56 M118.27 71.18 C139.27 46.51, 157.78 25.12, 180.74 -0.29 M117.87 72.88 C140.41 45.06, 164.57 19.17, 179.26 -0.52 M122.23 71.14 C146.83 47.69, 169.82 19.16, 184.04 -0.83 M122.74 71.8 C134.95 55.59, 149.63 39.48, 186.13 -0.08 M125.94 71.47 C145.75 51.12, 163.6 30.38, 189.16 -1.62 M126.77 73.53 C145 51.87, 161.85 32.15, 190.42 -0.51 M133.18 70.45 C144.73 58.28, 158.65 40.94, 197.54 -1.32 M134.31 73.18 C158.36 43.11, 182.05 14.6, 195.78 -0.34 M139.88 73.32 C154.04 53.85, 169.55 34.24, 202.29 0.89 M138.8 71.83 C154.42 53.48, 171.35 34.11, 201.2 -0.43 M142.9 70.77 C158.47 58.53, 171.31 42.93, 208.93 -0.21 M144.32 72.17 C167.27 44.64, 191.58 17.66, 206.52 -0.25 M150.29 73.45 C172.45 45.56, 198.41 17.67, 213.69 -1.41 M148.51 72.29 C164.64 53.62, 179.4 36.02, 211.45 -0.11 M153.34 71.2 C177.83 45.49, 200.83 16.64, 216.19 -0.53 M153.49 72.18 C174.09 48.14, 195.01 23.75, 217.03 0.56 M160.14 71.83 C182.23 43.07, 206.35 19.28, 221.73 -1.93 M160.07 71.74 C173.66 55.48, 188.78 39.55, 222.67 0.99 M165.13 71.83 C185.91 50.05, 205.24 27.97, 230.03 -2.04 M164.11 72.75 C181.09 54.33, 196.05 35.3, 227.6 -1.2 M169.15 71.68 C192.24 49.65, 212.01 25.89, 233.48 1.18 M169.28 73.42 C183.98 57.65, 197.09 43.09, 233.95 -0.22 M173.71 74.27 C199.22 44.85, 220.64 20.58, 237.24 -0.52 M176.14 72.07 C197.68 46.07, 221.16 20.9, 237.51 0.35 M181.77 71.47 C198.26 54.8, 214.56 37.26, 244.78 1.02 M181.57 72.94 C197.21 56.14, 211.42 37.71, 244.04 -0.43 M183.93 74.61 C202.41 52.41, 219.37 33.92, 247.38 1.23 M185.81 71.92 C207.99 49.27, 228.22 24.85, 249.6 1.17 M191.23 72.94 C213.99 45.18, 237.35 18.53, 256.23 -2.06 M191.97 72.28 C215.82 42.92, 240.06 15.72, 255.31 0.02 M197.38 72.19 C211.43 54.88, 227.95 34.95, 260.73 1.96 M196.99 72.47 C213.7 53.53, 229.76 33.93, 260.41 -0.11 M203.49 73.04 C217.13 54.42, 231.55 40, 265.17 -0.47 M201.17 71.8 C226.74 43.08, 252.98 14.84, 265.73 -0.81 M208.38 73.63 C222.3 55.86, 237.56 39.6, 271.02 -1.12 M207.17 72.27 C227.81 50.42, 246.16 27.99, 270.72 0.73 M213.27 72.01 C233.37 48.4, 256.96 22.49, 277.68 0.65 M213.47 72.23 C226.91 57.4, 241.06 41.25, 274.92 -0.52 M216.04 72.75 C240.5 48.19, 263.75 18.71, 280.71 0.46 M217.44 72.24 C232.06 55.18, 247.7 38.79, 280.97 0.3 M224.02 73.32 C234.1 57.36, 249.72 42.34, 284.6 -0.62 M222.79 72.69 C238.13 52.35, 255.62 35.12, 286.11 -0.31 M228.19 70.67 C243.14 55.85, 257.48 40.5, 293.01 -1.57 M228.56 71.67 C244.51 53.99, 260.55 35.37, 291.2 -0.42 M235.97 71.68 C250.68 54.33, 266.59 32.96, 297.53 1.08 M234.67 72.64 C256.14 47.82, 278.51 22.82, 296.17 -0.99 M237.43 71.72 C258.58 45.84, 281.63 22.44, 303.9 -0.24 M238.88 72.23 C253.4 55.68, 268.24 37.65, 301.08 -0.07 M246.07 73.08 C267.92 47.5, 289.6 21.08, 308.8 -1.65 M244.29 71.95 C267.14 45.33, 290.36 19.61, 307.58 -1.05 M249.08 71.51 C264.15 55.81, 278.66 39.85, 314.08 -1.33 M250.38 71.97 C266.18 53.78, 282.43 35.07, 311.92 1.08 M256.05 70.73 C270.19 55.25, 281.99 38.38, 319.51 -0.98 M254.46 72.85 C280.52 44.38, 303.99 15.53, 318.45 -0.54 M261.25 72.89 C280.46 49.18, 298.97 28.05, 325.03 0.64 M260.69 73.31 C276.7 53.2, 294.98 34.2, 322.63 -0.85 M264.37 73.11 C279.22 57.45, 291.77 41.24, 327.49 -1.79 M265.59 71.96 C278.75 56.58, 294.45 38.99, 328.52 -1.17 M272.77 73.95 C285.65 58.97, 297.73 40.67, 334.95 -1.61 M271.03 73.05 C283.44 55.54, 298.71 39.61, 333.78 0.6 M277.59 72.69 C287.67 56.24, 302.52 39.85, 339.34 -1.74 M275.07 72.99 C288.92 57.62, 303.7 42.14, 339.16 -0.29 M283.24 72.04 C303.48 49.02, 323.73 26.89, 342.8 -0.12 M282.26 72.34 C303.16 48.61, 321.71 24.84, 343.52 0.31 M284.98 70.94 C307.27 50.65, 326.46 26.2, 349.73 1.51 M285.9 73.81 C310.62 44.97, 334.79 15.8, 348.68 -0.08 M292.98 71.75 C315.46 43.54, 339.4 14.46, 356.32 0.35 M292.88 72.75 C303.85 57.09, 317.87 43.07, 355.66 -0.51 M298.6 70.83 C316.29 51.11, 336.37 27.86, 360.08 -0.68 M296.71 72.91 C311.63 56.78, 324.44 39.27, 361.02 -0.64 M303.1 72.94 C321.84 50.46, 340.12 27.1, 363.95 -1.74 M302.99 72.18 C326.84 46.6, 349.14 19.76, 365.63 -0.23 M307.92 73.84 C320.56 56.96, 334.13 42.2, 370.55 0.52 M308.43 72.38 C320.78 56.81, 333.12 42.95, 369.75 0.59 M311.43 70.71 C335.61 48.44, 356.84 20.94, 374.92 -0.65 M314.34 72.93 C332.05 49.17, 353.47 26.49, 376.47 -0.89 M319.15 72.69 C339.51 49.83, 358.3 26.51, 382.75 0.47 M317.62 72.71 C336.36 52.07, 353.52 33.06, 380.74 -0.23 M324.56 71.39 C342.33 47.07, 365.54 26.79, 387.19 0.57 M324.27 71.68 C338.69 57.29, 350.22 43.1, 386.86 -0.11 M327.26 71.36 C343.23 57.03, 357.28 44.35, 391.02 1.77 M328.43 72.76 C342 58.22, 353.43 44.25, 391.47 -0.55 M333.83 72.59 C349.55 53.15, 366.41 36.87, 399.47 -1.85 M333.79 71.47 C348.98 55.83, 364.15 37.14, 397.09 0.82 M339.97 73.06 C361.45 48.85, 379.76 28.6, 402.43 -1.74 M338.67 71.76 C365.17 44.88, 388.62 14.94, 403.06 0.55 M343.33 71.16 C363.16 51.93, 380.2 30.08, 407.23 -0.42 M345.49 71.71 C358.54 55.11, 374.58 39.82, 409.08 -0.97 M349.73 72.26 C369.08 50.5, 386.86 31.69, 412.84 -0.95 M349.77 73.31 C368.81 49.54, 387.72 27.16, 414.23 0.36 M357.9 71.18 C374.56 47.88, 398.27 25.76, 418.68 -0.44 M355.62 72.2 C370.43 53.85, 387.22 37.59, 418.4 -0.01 M361.76 70.7 C380.95 51.19, 399.05 29.32, 422.83 0.47 M360.77 73.41 C375.41 55.66, 387.66 40.23, 423.36 0.55 M367.14 72.03 C384.2 53.13, 398.61 37.61, 430.8 0.07 M366.04 73.12 C390.48 43.46, 414.93 14.86, 430.21 -0.45 M370.03 73.34 C393.39 47.54, 415.32 21.8, 433.75 -1.87 M372.35 72.41 C387.67 54.1, 405.34 34.66, 434.42 -0.83 M377.37 72.27 C398.36 49.07, 419.88 26.34, 441.28 -1.66 M376.23 73 C391.91 56.25, 406.51 39.65, 439.31 -0.04 M381.26 72.41 C403.75 47.87, 425.35 23.86, 443.68 -1.13 M382.81 73.03 C407.95 42.89, 431.08 15.87, 445.03 0.64 M387.04 74.53 C409.27 49.99, 431.39 25, 452.61 -1.17 M386.65 73.53 C406.38 48.74, 426.77 26.85, 450.12 -0.18 M390.89 71.38 C414.3 45.25, 437.96 19.2, 455.45 0.8 M392.06 72.4 C406.25 57.73, 418.01 43.23, 456.43 -0.25 M397.3 74.39 C415.68 55.24, 430.45 32.73, 459.99 1.28 M397.35 72.48 C415.05 52.87, 432.75 33.21, 460.69 0.1 M403.16 72.97 C420.07 52.4, 435.77 36.39, 464.68 1.25 M403.66 71.98 C425.23 48.03, 445.27 22.65, 465.48 -0.32 M408.07 72.95 C424.62 56.1, 437.56 40.11, 470.73 1.4 M408.03 72.28 C430.78 47.85, 453.83 19.97, 472.05 0.93 M415.03 71.15 C431.07 55.04, 443.2 38.73, 475.68 0.84 M414.79 71.64 C430.23 52.81, 447.46 33.89, 476.65 -0.04 M420.71 73.81 C437.69 51.67, 457.54 28.1, 482.86 -0.09 M418.67 72.98 C436.69 52.57, 452.54 32.51, 482.8 0.53 M424.21 71.15 C444.25 49.31, 460.68 29.12, 489.55 -0.61 M424.24 71.61 C442.36 51.3, 461.71 30.21, 488.08 0.52 M429.3 71.82 C444.19 57.02, 454.92 41.82, 493.19 -0.96 M428.9 73 C450.57 48.94, 471.64 25.66, 493.2 -0.25 M437.16 73.43 C458.7 49.07, 480.4 22.96, 500.14 0.02 M434.43 72.5 C458.68 44.4, 484.24 16.84, 497.48 -0.34 M440.67 73.07 C458.86 50.99, 475.84 30.76, 503.93 -0.49 M439.95 73.13 C460.82 50.55, 479.32 28.42, 503.82 1.09 M445.11 73.73 C465.92 52.78, 484.02 31.56, 508.06 3.34 M445.42 73.29 C465.84 50.11, 484.04 28.57, 506.25 2.3 M450.43 70.91 C470.58 49.26, 489.91 26.36, 506.84 9.59 M450.67 72.54 C461.33 59.33, 472.73 46.64, 507.6 7.69 M456.01 71.02 C467.49 61.59, 477.16 49.59, 505.44 15.24 M456.87 71.33 C472.92 55.62, 486.59 37.39, 506.17 15.79 M462.9 73.94 C476.36 55.87, 493.11 35.99, 505.55 19.98 M461.56 72.78 C473.44 58.67, 484.64 45.02, 506.28 20.27 M466.58 71.51 C480.15 59.71, 491.07 46.78, 506.2 25.24 M468.1 72.37 C475.46 63.38, 484.08 52.66, 505.69 26.23 M471.19 74.01 C484.05 55.91, 497.36 41.65, 507.82 33.38 M472.72 71.76 C485.2 57.16, 497.24 44.29, 506.56 32.66 M478.29 72.68 C490.07 62.36, 496.88 49.19, 506.53 38.22 M478.01 72.5 C488.52 61.56, 498.83 48.66, 506.38 38.18 M481.12 74.22 C488.94 66.08, 498.64 57.96, 506.21 44.27 M481.9 71.79 C487.09 67.07, 493.08 60.89, 506.84 45.59 M489.34 71.26 C495.89 63.43, 502.39 59.55, 508.03 49.5 M489.16 72.21 C492.96 66.35, 496.66 61.96, 506.11 51.8 M495.29 72.91 C496.66 66.59, 502.46 62.3, 507.99 56.1 M494.44 73.53 C497.56 67.05, 504.42 60.32, 507.11 57.91 M498.87 71.58 C502.17 68.43, 504.8 64.68, 505.8 62.25 M499.48 72.27 C501.03 69.45, 502.91 68.06, 506.61 63.42" stroke="#82c91e" stroke-width="0.5" fill="none"></path><path d="M-0.26 0.14 C179.37 -2.46, 358.13 -2.06, 503.42 -0.52 M0.34 0.03 C147.96 2.24, 296.15 1.57, 504.37 -0.08 M502.27 -1.36 C503.19 17.97, 505.14 35.05, 505.33 73.41 M503.97 -0.43 C503.16 27.11, 503.06 53.43, 504.98 71.27 M504.3 72.78 C316.8 70.45, 129.25 70.95, -0.12 71.22 M504.29 72.06 C382.34 72.85, 260.34 72.92, -0.32 72.06 M0.46 70.35 C-0.16 46.33, 1.77 23.75, -0.03 0.74 M-0.23 71.05 C1.23 49.61, 1.4 26, 0.05 -0.5" stroke="#2b8a3e" stroke-width="1" fill="none"></path></g><g transform="translate(52.399993896484375 21.905697516675218) rotate(0 219 23)"><text x="219" y="32" font-family="Virgil, Segoe UI Emoji" font-size="36px" fill="#000000" text-anchor="middle" style="white-space: pre;" direction="ltr">How does HashMap work?</text></g></svg>